<svg xmlns="http://www.w3.org/2000/svg" width="18" height="18" viewBox="0 0 18 18" id="wv-icon-pencil">
  <title id="title12">Edit</title>
  <g id="Users" fill="none" fill-rule="evenodd">
    <g id="Desktop-HD-Copy-2" transform="translate(-1085 -341)" stroke-width=".5">
      <g id="g16" transform="translate(1086 342)">
        <g id="g3349">
          <path id="Shape" transform="translate(-1 -1)"
                d="M14.479.771a1.513 1.513 0 0 0-.319.03c-.418.082-.81.315-1.12.62L1.91 12.392.654 17.34l5.018-1.236.049-.046 11.076-10.92c.31-.307.55-.695.633-1.11.083-.414-.007-.87-.348-1.207l-1.705-1.68a1.295 1.295 0 0 0-.898-.37zm-.223.522c.296-.058.553-.01.771.205l1.703 1.68c.22.216.268.462.21.752-.059.29-.244.606-.493.851l-.11.108-3.052-3.01.104-.102c.249-.245.57-.426.867-.484zm-1.328.937l3.054 3.01-.496.489-3.052-3.01.494-.489zm-.852.84l3.053 3.01-9.584 9.447-3.053-3.007 9.584-9.45zm-9.805 9.934l2.778 2.74-3.705.914.927-3.654z"
                style="line-height:normal;font-variant-ligatures:none;font-variant-position:normal;font-variant-caps:normal;font-variant-numeric:normal;font-variant-alternates:normal;font-feature-settings:normal;text-indent:0;text-align:start;text-decoration-line:none;text-decoration-style:solid;text-decoration-color:#000;text-transform:none;block-progression:tb;shape-padding:0;isolation:auto;mix-blend-mode:normal"
                color="#000" font-weight="400" font-family="sans-serif" white-space="normal" overflow="visible"
                fill="#000" fill-rule="nonzero"/>
        </g>
      </g>
    </g>
  </g>
</svg>
