<?xml version="1.0" encoding="UTF-8" standalone="no"?>
<svg
   xmlns:dc="http://purl.org/dc/elements/1.1/"
   xmlns:cc="http://creativecommons.org/ns#"
   xmlns:rdf="http://www.w3.org/1999/02/22-rdf-syntax-ns#"
   xmlns:svg="http://www.w3.org/2000/svg"
   xmlns="http://www.w3.org/2000/svg"
   xmlns:sodipodi="http://sodipodi.sourceforge.net/DTD/sodipodi-0.dtd"
   xmlns:inkscape="http://www.inkscape.org/namespaces/inkscape"
   width="401px"
   height="124px"
   viewBox="0 0 401 124"
   version="1.1"
   id="svg10"
   inkscape:version="0.91+devel+osxmenu r12922"
   sodipodi:docname="wv-icon-logo.svg">
  <metadata
     id="metadata28">
    <rdf:RDF>
      <cc:Work
         rdf:about="">
        <dc:format>image/svg+xml</dc:format>
        <dc:type
           rdf:resource="http://purl.org/dc/dcmitype/StillImage" />
      </cc:Work>
    </rdf:RDF>
  </metadata>
  <sodipodi:namedview
     pagecolor="#ffffff"
     bordercolor="#666666"
     borderopacity="1"
     objecttolerance="10"
     gridtolerance="10"
     guidetolerance="10"
     inkscape:pageopacity="0"
     inkscape:pageshadow="2"
     inkscape:window-width="640"
     inkscape:window-height="480"
     id="namedview26"
     showgrid="false"
     inkscape:zoom="3.2842893"
     inkscape:cx="200.5"
     inkscape:cy="59.259681"
     inkscape:current-layer="Logo" />
  <!-- Generator: Sketch 44.1 (41455) - http://www.bohemiancoding.com/sketch -->
  <title
     id="title12">Logo</title>
  <desc
     id="desc14">Created with Sketch.</desc>
  <defs
     id="defs16" />
  <g
     id="Login"
     stroke="none"
     stroke-width="1"
     fill="none"
     fill-rule="evenodd">
    <g
       id="Logo"
       transform="translate(0.000000, 0.152590)"
       fill="#000000">
      <path
         id="Fill-12"
         d="m 61.903732,42.55316 c 2.174883,0 3.943246,1.806436 3.943246,4.026655 l 0,26.884098 c 0,2.721081 2.207528,4.936358 4.921975,4.936358 l 11.004996,0 c 1.344596,0 2.599265,-0.524947 3.468356,-1.456265 0.952243,-0.953552 1.453618,-2.159695 1.453618,-3.480093 l 0,-26.884098 c 0,-2.259126 1.763436,-4.026655 4.014695,-4.026655 2.174884,0 3.942631,1.806436 3.942631,4.026655 l 0,26.884098 c 0,3.423892 -1.345828,6.661274 -3.782486,9.10197 -2.371984,2.457989 -5.603204,3.812971 -9.096814,3.812971 l -11.004996,0 c -3.327307,0 -6.445194,-1.283342 -8.865221,-3.617196 l 0.03141,0 c -2.420643,2.333854 -5.536067,3.617196 -8.863989,3.617196 l -11.005612,0 c -3.49361,0 -6.72483,-1.354982 -9.096814,-3.812971 -2.43481,-2.440696 -3.780638,-5.678078 -3.780638,-9.10197 l 0,-26.884098 c 0,-2.220219 1.767131,-4.026655 3.940782,-4.026655 2.250644,0 4.014696,1.767529 4.014696,4.026655 l 0,26.884098 c 0,1.320398 0.502607,2.526541 1.453002,3.480093 0.86909,0.931318 2.126223,1.456265 3.468972,1.456265 l 11.005612,0 c 2.714446,0 4.923206,-2.215277 4.923206,-4.936358 l 0,-26.884098 c 0,-2.220219 1.768979,-4.026655 3.940783,-4.026655 M 61.379259,8.0497899 c -29.757897,0 -53.9667936,24.2741841 -53.9667936,54.1109571 0,29.836155 24.2088966,54.110343 53.9667936,54.110343 29.757898,0 53.968031,-24.274188 53.968031,-54.110343 0,-29.836773 -24.210133,-54.1109571 -53.968031,-54.1109571 m 0,115.6527001 C 27.534601,123.70249 2.463759e-4,96.095197 2.463759e-4,62.160747 2.463759e-4,28.225679 27.534601,0.61777041 61.379259,0.61777041 c 33.844658,0 61.379631,27.60790859 61.379631,61.54297659 0,33.93445 -27.534973,61.541743 -61.379631,61.541743 M 396.96387,68.324061 c 2.17489,0 3.9414,-1.772469 3.9414,-3.950692 0,-2.220218 -1.76651,-4.027273 -3.9414,-4.027273 l -37.76819,0 0,-5.00985 c 0,-1.282725 0.52786,-2.551862 1.4721,-3.499238 0.85184,-0.913408 2.10713,-1.435885 3.44987,-1.435885 l 32.84622,0 c 2.17489,0 3.9414,-1.773087 3.9414,-3.950075 0,-2.221453 -1.76651,-4.027272 -3.9414,-4.027272 l -32.84622,0 c -7.09993,0 -12.87806,5.792948 -12.87806,12.91247 l 0,17.997048 c 0,3.427598 1.34829,6.661891 3.78371,9.10444 2.36952,2.454901 5.60074,3.809883 9.09435,3.809883 l 32.84622,0 c 2.17489,0 3.9414,-1.804584 3.9414,-4.027273 0,-2.176987 -1.76651,-3.949457 -3.9414,-3.949457 l -32.84622,0 c -1.34274,0 -2.59803,-0.524329 -3.46897,-1.457501 -0.94916,-0.954169 -1.453,-2.155372 -1.453,-3.480092 l 0,-5.009233 37.76819,0 z m -104.40628,1.65976 -21.65028,0 10.80604,-16.328951 10.84424,16.328951 z m 16.29653,10.124073 -5.24349,-7.887179 c -0.14105,-0.28903 -0.32337,-0.566944 -0.48413,-0.744191 L 285.06838,44.263871 c -0.74714,-1.132034 -1.97286,-1.782351 -3.35503,-1.782351 -1.3138,0 -2.54013,0.666374 -3.28419,1.781116 l -17.98297,27.118163 c -0.23345,0.269267 -0.42316,0.559532 -0.51308,0.7621 l -4.06459,6.128297 -37.87352,0 c -1.34213,0 -2.59865,-0.524947 -3.46712,-1.457501 -0.95163,-0.954169 -1.45485,-2.155989 -1.45485,-3.480092 l 0,-5.009851 37.76757,0 c 2.1755,0 3.9414,-1.772469 3.9414,-3.951927 0,-2.218983 -1.7659,-4.02542 -3.9414,-4.02542 l -37.76757,0 0,-5.010468 c 0,-1.282724 0.53032,-2.551862 1.47702,-3.499237 0.8463,-0.912791 2.10405,-1.435886 3.44495,-1.435886 l 32.8456,0 c 2.1755,0 3.9414,-1.772469 3.9414,-3.949457 0,-2.221454 -1.7659,-4.027273 -3.9414,-4.027273 l -32.8456,0 c -7.09994,0 -12.87684,5.792949 -12.87684,12.911853 l 0,17.997666 c 0,3.427597 1.34768,6.661891 3.78311,9.103823 2.37075,2.455518 5.60197,3.8105 9.09373,3.8105 l 40.10322,0 c 1.89525,0 2.82285,-1.238876 4.22535,-3.292964 l 3.3039,-4.993794 32.22966,0 4.36209,6.569871 c 0.73481,1.073363 1.96793,1.714416 3.29897,1.714416 0.80812,0 1.57434,-0.234064 2.20691,-0.670697 0.90482,-0.590411 1.5183,-1.488998 1.72772,-2.530246 0.20387,-1.029515 -0.01,-2.075704 -0.5987,-2.936618 l 0,0 z M 349.68508,45.68092 c -0.20449,-1.041866 -0.81736,-1.937982 -1.70554,-2.51666 -1.73018,-1.185146 -4.34053,-0.699724 -5.53052,1.042484 L 322.01891,75.074267 301.51612,44.199333 c -0.73481,-1.077069 -1.96854,-1.718122 -3.29958,-1.718122 -0.80504,0 -1.57373,0.234682 -2.20692,0.671933 -0.90481,0.589794 -1.51767,1.487762 -1.72463,2.528393 -0.20695,1.03075 0.01,2.077557 0.59623,2.93847 l 23.78513,35.845259 c 0.75206,1.133887 1.97594,1.782968 3.35502,1.782968 1.3138,0 2.5426,-0.667609 3.28481,-1.782968 l 23.77774,-35.83723 c 0.59623,-0.870178 0.8075,-1.916984 0.60116,-2.947116 M 167.98556,42.424084 c 2.17365,0 3.94078,1.805819 3.94078,4.027273 l 0,26.882246 c 0,2.722315 2.20938,4.937593 4.92198,4.937593 l 11.0093,0 c 1.34029,0 2.59865,-0.524947 3.46774,-1.457501 0.9504,-0.954169 1.453,-2.155989 1.453,-3.480092 l 0,-26.882246 c 0,-2.257891 1.76283,-4.027273 4.01408,-4.027273 2.17489,0 3.94079,1.805819 3.94079,4.027273 l 0,26.882246 c 0,3.426362 -1.3446,6.659421 -3.77941,9.103823 -2.37014,2.455518 -5.60136,3.8105 -9.0962,3.8105 l -11.0093,0 c -3.32546,0 -6.44027,-1.282725 -8.86276,-3.614108 l 0.032,0 c -2.42126,2.331383 -5.53545,3.614108 -8.86461,3.614108 l -11.00499,0 c -3.493,0 -6.72422,-1.354982 -9.09682,-3.8105 -2.43481,-2.444402 -3.78248,-5.677461 -3.78248,-9.103823 l 0,-26.882246 c 0,-2.221454 1.76774,-4.027273 3.94263,-4.027273 2.25126,0 4.01469,1.769382 4.01469,4.027273 l 0,26.882246 c 0,1.324103 0.50199,2.525923 1.45362,3.480092 0.86909,0.932554 2.12684,1.457501 3.46836,1.457501 l 11.00499,0 c 2.71445,0 4.92444,-2.215278 4.92444,-4.937593 l 0,-26.882246 c 0,-2.221454 1.76898,-4.027273 3.94017,-4.027273" />
    </g>
  </g>
</svg>
