<svg xmlns="http://www.w3.org/2000/svg" width="36.968" height="38.439" viewBox="0 0 36.968464 38.439453" id="wvIconTrashcan-svg"><g id="Phone" fill="none"><path style="text-indent:0;text-align:start;line-height:normal;text-transform:none;block-progression:tb;marker:none;-inkscape-font-specification:Sans" d="M12.781.781a1 1 0 0 0-.875 1V5H1.72a1 1 0 0 0-.094 0 1.001 1.001 0 1 0 .094 2H5.53v31.219a1 1 0 0 0 1 1h25.407a1 1 0 0 0 1-1V7h3.687a1 1 0 1 0 0-2H26.594V1.781a1 1 0 0 0-1-1H12.906a1 1 0 0 0-.125 0zm1.125 2h10.688V5H13.906V2.781zm-6.375 4.75h23.407V37.22H7.53V7.53zm5.188 3.531a1 1 0 0 0-.875 1.032v19a1 1 0 1 0 2 0v-19a1 1 0 0 0-1.125-1.031zm6 0a1 1 0 0 0-.875 1.032v19a1 1 0 1 0 2 0v-19a1 1 0 0 0-1.125-1.031zm6 0a1 1 0 0 0-.875 1.032v19a1 1 0 1 0 2 0v-19a1 1 0 0 0-1.125-1.031z" id="wvIconTrashcan" font-weight="400" color="#000" fill="#000" stroke-width="2" overflow="visible" font-family="Sans" transform="translate(-.67 -.78)"/></g></svg>